<svg width="392" height="392" viewBox="0 0 392 392" fill="none" xmlns="http://www.w3.org/2000/svg">
<rect width="392" height="392" rx="50" fill="#06B6D4"/>
<path d="M332.802 52.2229L315.383 108.529C314.657 110.877 312.005 112.02 309.799 110.937L259.96 86.4627C258.71 85.8489 257.261 85.7841 255.962 86.284L240.934 92.064C240.078 92.3931 239.267 91.4935 239.684 90.6767L250.598 69.2512C251.491 67.4985 253.08 66.2024 254.977 65.68L326.697 45.9248C330.505 44.8758 333.969 48.4492 332.802 52.2229Z" fill="#F97316"/>
<path d="M295.521 112.239L254.998 110.309C251.335 110.135 248.158 112.818 247.716 116.458L234 229.5C229.069 246.203 213.508 282.859 189.493 301.465C188.655 302.114 189.241 303.517 190.287 303.345C249.67 293.547 276.197 258.804 284.5 229.5L300.234 117.932C300.645 115.017 298.461 112.379 295.521 112.239Z" fill="white"/>
<path d="M128.851 143.468L183.186 130L167.983 231.03C167.787 232.331 167.316 233.622 166.621 234.738C130.817 292.227 88.928 265.698 116.403 222.167C117.846 219.88 115.994 216.751 113.324 217.181C100.634 219.221 75.6608 223.259 72.1861 224C67.4986 225 63.1861 233 63.1861 233C16.6861 326 181.874 357 217.686 233L240.086 73.2813C240.376 71.2086 238.509 69.4828 236.465 69.9358L137.194 91.9462C133.006 92.8748 129.876 96.3715 129.416 100.637L125.146 140.234C124.923 142.306 126.828 143.969 128.851 143.468Z" fill="white"/>
</svg>
